<svg width="64" height="64" viewBox="0 0 64 64" fill="none" xmlns="http://www.w3.org/2000/svg">
<rect width="64" height="64" rx="8.192" fill="url(#paint0_linear_145_1906)"/>
<path d="M48.2988 43.5975C47.6535 43.5975 47.105 43.3878 46.6533 42.9684C46.2178 42.5328 46 41.9763 46 41.2988C46 40.6212 46.2178 40.0728 46.6533 39.6533C47.105 39.2178 47.6535 39 48.2988 39C48.9602 39 49.5086 39.2178 49.9442 39.6533C50.3798 40.0728 50.5975 40.6212 50.5975 41.2988C50.5975 41.9763 50.3798 42.5328 49.9442 42.9684C49.5086 43.3878 48.9602 43.5975 48.2988 43.5975Z" fill="#00E5FF"/>
<path d="M38.7264 43.6224C37.344 43.6224 36.1237 43.3749 35.0656 42.88C34.0075 42.3851 33.1797 41.6768 32.5824 40.7552C31.9851 39.8336 31.6864 38.7243 31.6864 37.4272V36.7104H35.0144V37.4272C35.0144 38.5024 35.3472 39.3131 36.0128 39.8592C36.6784 40.3883 37.5829 40.6528 38.7264 40.6528C39.8869 40.6528 40.7488 40.4224 41.312 39.9616C41.8923 39.5008 42.1824 38.912 42.1824 38.1952C42.1824 37.7003 42.0373 37.2992 41.7472 36.992C41.4741 36.6848 41.0645 36.4373 40.5184 36.2496C39.9893 36.0448 39.3408 35.8571 38.5728 35.6864L37.984 35.5584C36.7552 35.2853 35.6971 34.944 34.8096 34.5344C33.9392 34.1077 33.2651 33.5531 32.7872 32.8704C32.3264 32.1877 32.096 31.3003 32.096 30.208C32.096 29.1157 32.352 28.1856 32.864 27.4176C33.3931 26.6325 34.1269 26.0352 35.0656 25.6256C36.0213 25.1989 37.1392 24.9856 38.4192 24.9856C39.6992 24.9856 40.8341 25.2075 41.824 25.6512C42.8309 26.0779 43.616 26.7264 44.1792 27.5968C44.7595 28.4501 45.0496 29.5253 45.0496 30.8224V31.5904H41.7216V30.8224C41.7216 30.1397 41.5851 29.5936 41.312 29.184C41.056 28.7573 40.6805 28.4501 40.1856 28.2624C39.6907 28.0576 39.1019 27.9552 38.4192 27.9552C37.3952 27.9552 36.6357 28.1515 36.1408 28.544C35.6629 28.9195 35.424 29.44 35.424 30.1056C35.424 30.5493 35.5349 30.9248 35.7568 31.232C35.9957 31.5392 36.3456 31.7952 36.8064 32C37.2672 32.2048 37.856 32.384 38.5728 32.5376L39.1616 32.6656C40.4416 32.9387 41.5509 33.2885 42.4896 33.7152C43.4453 34.1419 44.1877 34.7051 44.7168 35.4048C45.2459 36.1045 45.5104 37.0005 45.5104 38.0928C45.5104 39.1851 45.2288 40.1493 44.6656 40.9856C44.1195 41.8048 43.3344 42.4533 42.3104 42.9312C41.3035 43.392 40.1088 43.6224 38.7264 43.6224Z" fill="#EDE8F7"/>
<path d="M15.9867 43.264V20.3264H21.248V38.016H30.7978V43.264H15.9867Z" fill="#EDE8F7"/>
<defs>
<linearGradient id="paint0_linear_145_1906" x1="9.6" y1="9.856" x2="94.464" y2="111.232" gradientUnits="userSpaceOnUse">
<stop offset="0.108514" stop-color="#3A3458"/>
<stop offset="1" stop-color="#E040FB"/>
</linearGradient>
</defs>
</svg>
